<svg id="Layer_1" data-name="Layer 1" xmlns="http://www.w3.org/2000/svg" xmlns:xlink="http://www.w3.org/1999/xlink" viewBox="0 0 143 84"><defs><style>.cls-1,.cls-2{fill:#fff;}.cls-1{filter:url(#luminosity-invert-noclip);}.cls-3{fill:#4a4a4a;}.cls-4{mask:url(#mask);}</style><filter id="luminosity-invert-noclip" x="70.56" y="0.8" width="54.8" height="82.08" filterUnits="userSpaceOnUse" color-interpolation-filters="sRGB"><feColorMatrix values="-1 0 0 0 1 0 -1 0 0 1 0 0 -1 0 1 0 0 0 1 0" result="invert"/><feFlood flood-color="#fff" result="bg"/><feBlend in="invert" in2="bg"/></filter><mask id="mask" x="70.56" y="0.8" width="54.8" height="82.08" maskUnits="userSpaceOnUse"><polygon class="cls-1" points="125.36 25.6 79.84 25.6 83.04 21.12 125.36 21.12 125.36 25.6"/></mask></defs><title>Artboard 1</title><g id="SVGID"><polygon class="cls-2" points="126.6 25.6 81.5 25.6 84.7 21.2 126.6 21.2 126.6 25.6"/></g><path class="cls-3" d="M16.16,78.72A32.32,32.32,0,0,1,3,64.16c-3-6.4-3-13.76-3-22.4s0-16,3-22.24A33.72,33.72,0,0,1,16.16,5.12,39.32,39.32,0,0,1,36.32,0,44.79,44.79,0,0,1,52,2.56,33.13,33.13,0,0,1,64.32,10.4L60.8,20.8a40,40,0,0,0-11.52-7.2,35.53,35.53,0,0,0-12.64-2.24c-9,0-16,2.88-21,8.8-5,5.76-4.16,10.88-4.16,21.76s-.8,16,4.16,21.92,11.84,8.8,21,8.8A35.53,35.53,0,0,0,49.28,70.4,38,38,0,0,0,60.8,63.2l3.52,10.4A33.13,33.13,0,0,1,52,81.44,44.79,44.79,0,0,1,36.32,84C28.64,83.84,21.76,82.08,16.16,78.72Z"/><g class="cls-4"><path class="cls-3" d="M70.56,82.88V.8h53.92V12H83.2L80,16.48h44.48v14.4H83.2v52Z"/></g><path class="cls-3" d="M130.56,82.88V.8H143.2V82.88Z"/></svg>