<svg id="Layer_1" data-name="Layer 1" xmlns="http://www.w3.org/2000/svg" xmlns:xlink="http://www.w3.org/1999/xlink" viewBox="0 0 65.38 39.08"><defs><style>.cls-1{fill:#fff;filter:url(#luminosity-invert-noclip);}.cls-2{fill:#666;}.cls-3{mask:url(#mask);}</style><filter id="luminosity-invert-noclip" x="32.22" y="1.4" width="24.05" height="36.28" filterUnits="userSpaceOnUse" color-interpolation-filters="sRGB"><feColorMatrix values="-1 0 0 0 1 0 -1 0 0 1 0 0 -1 0 1 0 0 0 1 0" result="invert"/><feFlood flood-color="#fff" result="bg"/><feBlend in="invert" in2="bg"/></filter><mask id="mask" x="32.22" y="1.4" width="24.05" height="36.28" maskUnits="userSpaceOnUse"><polygon class="cls-1" points="56.27 12.32 36.35 12.31 37.76 10.34 56.27 10.34 56.27 12.32"/></mask></defs><title>cfilogodark</title><path class="cls-2" d="M58.78,37.68V1.4h5.59V37.68Z"/><g class="cls-3"><path class="cls-2" d="M32.22,37.68V1.4H56.05V6.33H37.76l-1.42,2H56.05v6.35H37.76v23Z"/></g><path class="cls-2" d="M8.16,35.84A14.74,14.74,0,0,1,2.33,29.4C1,26.59,1,23.29,1,19.49S1,12.4,2.33,9.63A14.8,14.8,0,0,1,8.16,3.23,17.26,17.26,0,0,1,17.11,1,20,20,0,0,1,24,2.14a14.73,14.73,0,0,1,5.43,3.44l-1.58,5.07a17.66,17.66,0,0,0-5.12-3.21,15.46,15.46,0,0,0-5.58-1q-6,0-9.25,3.87C5.72,12.92,6,14.73,6,19.49s-.33,6.63,1.85,9.22,5.26,3.9,9.27,3.9a15.45,15.45,0,0,0,5.58-1,17.63,17.63,0,0,0,5.12-3.21l1.58,5.07A14.73,14.73,0,0,1,24,36.94a20,20,0,0,1-6.9,1.15A17.26,17.26,0,0,1,8.16,35.84Z"/></svg>