<?xml version="1.0" encoding="utf-8"?>
<!-- Generator: Adobe Illustrator 21.1.0, SVG Export Plug-In . SVG Version: 6.00 Build 0)  -->
<svg version="1.1" id="Layer_1" xmlns="http://www.w3.org/2000/svg" xmlns:xlink="http://www.w3.org/1999/xlink" x="0px" y="0px"
	 viewBox="0 0 143 84" style="enable-background:new 0 0 143 84;" xml:space="preserve">
<style type="text/css">
	.st0{fill:#FFFFFF;}
	.st1{enable-background:new    ;}
	.st2{fill:#4A4A4A;}
	.st3{filter:url(#Adobe_OpacityMaskFilter);}
	.st4{mask:url(#SVGID_3_);fill:#4A4A4A;}
</style>
<g>
	<g>
		<polygon class="st0" points="126.6,25.6 81.5,25.6 84.7,21.2 126.6,21.2 		"/>
	</g>
	<path class="st2" d="M16.2,78.7C10.4,75.4,6.1,70.6,3,64.2c-3-6.4-3-13.8-3-22.4s0-16,3-22.2c3-6.2,7.5-11,13.1-14.4
		C21.9,1.8,28.6,0,36.3,0C42.1,0,47.2,0.8,52,2.6s8.8,4.3,12.3,7.8l-3.5,10.4C57,17.4,53,15,49.3,13.6c-3.8-1.4-8-2.2-12.6-2.2
		c-9,0-16,2.9-21,8.8c-5,5.8-4.2,10.9-4.2,21.8s-0.8,16,4.2,21.9s11.8,8.8,21,8.8c4.6,0,8.8-0.8,12.6-2.2c3.8-1.4,7.7-3.8,11.5-7.2
		l3.5,10.4c-3.5,3.5-7.5,6.1-12.3,7.8c-4.8,1.8-9.9,2.6-15.7,2.6C28.6,83.8,21.8,82.1,16.2,78.7z"/>
	<defs>
		<filter id="Adobe_OpacityMaskFilter" filterUnits="userSpaceOnUse" x="70.6" y="0.8" width="53.9" height="82.1">
			
				<feColorMatrix  type="matrix" values="-1 0 0 0 1  0 -1 0 0 1  0 0 -1 0 1  0 0 0 1 0" color-interpolation-filters="sRGB" result="source"/>
			<feFlood  style="flood-color:white;flood-opacity:1" result="back"/>
			<feBlend  in="source" in2="back" mode="normal"/>
		</filter>
	</defs>
	<mask maskUnits="userSpaceOnUse" x="70.6" y="0.8" width="53.9" height="82.1" id="SVGID_3_">
		<g class="st3">
			<polygon class="st0" points="125.4,25.6 79.8,25.6 83,21.1 125.4,21.1 			"/>
		</g>
	</mask>
	<path class="st4" d="M70.6,82.9V0.8h53.9V12H83.2L80,16.5h44.5v14.4H83.2v52H70.6z"/>
	<path class="st2" d="M130.6,82.9V0.8h12.6v82.1H130.6z"/>
</g>
</svg>
