<?xml version="1.0" encoding="utf-8"?>
<!-- Generator: Adobe Illustrator 21.1.0, SVG Export Plug-In . SVG Version: 6.00 Build 0)  -->
<svg version="1.1" id="Layer_1" xmlns="http://www.w3.org/2000/svg" xmlns:xlink="http://www.w3.org/1999/xlink" x="0px" y="0px"
	 viewBox="0 0 472 90" enable-background="new 0 0 472 90" xml:space="preserve">
<path fill="#867F7C" d="M44.66,2.64C21.14,2.64,2,21.77,2,45.3s19.14,42.66,42.66,42.66S87.32,68.82,87.32,45.3
	S68.19,2.64,44.66,2.64z M23.37,27.48c0-6.06,2.41-9.43,6.89-9.43c4.45,0,6.43,3.31,6.43,8.07v0.46h-3v-0.46
	c0-3.28-0.93-5.47-3.4-5.47c-2.53,0-3.68,2.29-3.68,6.34v2.23c0,4.05,1.14,6.34,3.68,6.34c2.47,0,3.4-2.19,3.4-5.47v-0.46h3v0.46
	c0,4.76-1.98,8.07-6.43,8.07c-4.48,0-6.89-3.37-6.89-9.43V27.48z M35.97,55.02H27.2v5.93h7.3v2.6h-7.3v8.31h-3.15V52.39h11.93V55.02
	z M38.44,46.61H21.58v-2.63h16.86V46.61z M55.66,72.54c-7.42,0-10.8-5.48-10.8-13.58v-6.58h3.96v6.75c0,6.49,2.28,10.12,6.75,10.12
	c4.22,0,6.24-3.54,6.24-9.03c0-6.24-2.36-8.27-5.65-11.39l-4.13-3.96c-3.37-3.29-6.92-6.58-6.92-14.68
	c0-6.83,3.37-12.15,10.04-12.15c7.42,0,10.37,5.4,10.37,13.5v6.07h-3.96v-6.24c0-6.24-1.86-10.04-6.33-10.04
	c-4.22,0-5.99,3.37-5.99,8.86c0,6.41,2.11,8.27,5.4,11.3l4.05,3.8c3.46,3.21,7.25,7,7.25,14.93C65.95,67.23,62.33,72.54,55.66,72.54
	z"/>
<path fill="#343536" d="M140,2.64c-17.45,0-29.63,9.98-29.63,24.25c0,11.02,7.38,19.01,22.57,24.43
	c9.85,3.59,13.52,6.95,13.52,12.38c0,6.22-5.06,9.93-13.52,9.93c-7.72,0-14.85-2.58-18.94-5l-1.2-0.71l-0.37,1.35l-3.35,12.19
	l-0.21,0.77l0.68,0.41c5.01,3.12,14.24,5.3,22.43,5.3c23.28,0,31.55-13.64,31.55-25.33c0-11.66-6.59-19.34-21.37-24.9
	c-10.38-4.04-14.72-6.63-14.72-12.26c0-3.98,3.19-8.62,12.19-8.62c7.03,0,12.39,2.02,15.64,3.71l1.15,0.6l0.37-1.24l3.47-11.83
	l0.24-0.85l-0.78-0.4C156.02,4.91,149.58,2.64,140,2.64"/>
<path fill="#343536" d="M187.6,11.35l-1.08,0.01l-14.45,0.11l-1.06,0.01v1.06V26.3h-7.18h-1.06v1.06v10.99v1.07h1.06h7.18v26.3
	c0,8.17,1.57,13.61,4.96,17.12c3.03,3.28,7.81,5.1,13.44,5.1c5.04,0,8.99-0.84,11.02-1.62l0.7-0.27l-0.02-0.75l-0.23-11.12
	l-0.03-1.39l-1.33,0.38c-1.49,0.42-2.76,0.56-5.44,0.56c-3.89,0-6.47-1.64-6.47-9.69V39.43h12.92h1.07v-1.07V27.37V26.3h-1.07H187.6
	V12.43V11.35L187.6,11.35z"/>
<path fill="#343536" d="M216.06,2.04c-5.39,0-9.32,3.81-9.32,9.07c0,5.1,3.95,8.95,9.19,8.95c5.47,0,9.44-3.77,9.44-8.95
	C225.23,5.76,221.4,2.04,216.06,2.04 M224.42,26.3h-1.07h-14.7h-1.06v1.06v58.21v1.07h1.06h14.7h1.07v-1.07V27.37V26.3L224.42,26.3z
	"/>
<path fill="#343536" d="M265.86,24.99c-8.56,0-14.72,4.07-18.15,8.47l-0.51-6.18l-0.08-0.98h-0.98h-12.79h-1.13l0.06,1.12
	c0.24,4.84,0.49,10.57,0.49,17.28v40.88v1.07h1.06h14.7h1.07v-1.07v-34.3c0-1.64,0.24-3.27,0.64-4.26c1.29-3.68,4.8-7.93,10.48-7.93
	c8.3,0,10.04,7.41,10.04,13.63v32.87v1.07h1.07h14.71h1.07v-1.07V51.03C287.6,31.83,276.37,24.99,265.86,24.99"/>
<path fill="#343536" d="M315.57,24.99c-13.58,0-23.06,7.91-23.06,19.23c0,5.63,2.91,13.32,16.74,17.98
	c7.55,2.77,8.83,4.55,8.83,7.48c0,4.79-5.17,5.5-8.26,5.5c-4.99,0-11.07-2.12-14.25-4.13l-1.22-0.77l-0.38,1.38L291,82.42
	l-0.23,0.81l0.74,0.41c4.8,2.67,11.44,4.2,18.2,4.2c15.26,0,24.73-7.42,24.73-19.36c-0.12-9.06-5.14-14.82-16.25-18.7
	c-7.5-2.79-9.44-4.25-9.44-7.12c0-3.17,2.7-5.15,7.06-5.15c4.75,0,9.3,1.73,11.75,3.2l1.19,0.72l0.39-1.33l2.99-10.28l0.24-0.82
	l-0.74-0.41C327.54,26.33,321.54,24.99,315.57,24.99"/>
<path fill="#343536" d="M367.89,24.99c-18.65,0-31.19,12.82-31.19,31.9c0,18.29,12.44,31.06,30.23,31.06
	c15.4,0,30.95-9.9,30.95-32.02C397.88,37.42,385.82,24.99,367.89,24.99 M367.41,75.18c-7.89,0-13.4-7.67-13.4-18.65
	c0-8.66,3.55-18.77,13.52-18.77c10.29,0,13.03,11.65,13.03,18.53C380.56,67.41,375.15,75.18,367.41,75.18"/>
<path fill="#343536" d="M436.35,24.99c-8.57,0-14.72,4.07-18.15,8.47l-0.51-6.17l-0.08-0.98h-0.98h-12.79h-1.12l0.05,1.12
	c0.23,4.76,0.48,10.41,0.48,17.28v40.88v1.07h1.06h14.71h1.06v-1.07v-34.3c0-1.65,0.25-3.28,0.65-4.26
	c1.29-3.68,4.8-7.94,10.48-7.94c8.3,0,10.04,7.41,10.04,13.63v32.87v1.07h1.06h14.71h1.07v-1.07V51.03
	C458.11,31.83,446.87,24.99,436.35,24.99"/>
<path fill="#343536" d="M464.34,25.23c-0.34-0.19-0.88-0.29-1.63-0.29h-1.15v2.77h1.22c0.57,0,1-0.06,1.29-0.17
	c0.53-0.21,0.79-0.61,0.79-1.2C464.85,25.8,464.68,25.42,464.34,25.23L464.34,25.23z M462.88,24.02c0.95,0,1.65,0.09,2.09,0.28
	c0.79,0.33,1.19,0.98,1.19,1.94c0,0.68-0.25,1.19-0.75,1.51c-0.26,0.17-0.63,0.3-1.11,0.37c0.6,0.1,1.04,0.34,1.31,0.75
	c0.28,0.41,0.42,0.8,0.42,1.19v0.56c0,0.18,0.01,0.37,0.02,0.57c0.01,0.2,0.03,0.34,0.07,0.4l0.05,0.1h-1.26
	c-0.01-0.03-0.01-0.05-0.02-0.08c-0.01-0.03-0.01-0.05-0.02-0.09l-0.03-0.25v-0.61c0-0.88-0.24-1.47-0.72-1.75
	c-0.29-0.16-0.79-0.25-1.5-0.25h-1.06v3.01h-1.35v-7.66H462.88L462.88,24.02z M458.78,23.64c-1.17,1.17-1.75,2.59-1.75,4.25
	c0,1.67,0.58,3.1,1.74,4.28c1.17,1.18,2.58,1.77,4.25,1.77c1.67,0,3.08-0.59,4.25-1.77c1.17-1.18,1.75-2.6,1.75-4.28
	c0-1.66-0.58-3.08-1.75-4.25c-1.17-1.18-2.59-1.77-4.25-1.77C461.36,21.87,459.95,22.46,458.78,23.64L458.78,23.64z M467.96,32.83
	c-1.36,1.37-3.01,2.05-4.94,2.05c-1.93,0-3.58-0.68-4.93-2.05c-1.35-1.36-2.02-3.01-2.02-4.95c0-1.92,0.68-3.56,2.04-4.92
	c1.36-1.36,2.99-2.03,4.91-2.03c1.93,0,3.58,0.68,4.94,2.03c1.36,1.36,2.04,3,2.04,4.92C470,29.81,469.32,31.46,467.96,32.83
	L467.96,32.83z"/>
</svg>
