<?xml version="1.0" encoding="UTF-8" standalone="no"?>
<svg width="75px" height="14px" viewBox="0 0 75 14" version="1.1" xmlns="http://www.w3.org/2000/svg" xmlns:xlink="http://www.w3.org/1999/xlink">
    <!-- Generator: Sketch 41.2 (35397) - http://www.bohemiancoding.com/sketch -->
    <title>Slice 1</title>
    <desc>Created with Sketch.</desc>
    <defs>
        <polygon id="path-1" points="0.06 14 74.625 14 74.625 0.879 0.06 0.879"></polygon>
    </defs>
    <g id="Page-1" stroke="none" stroke-width="1" fill="none" fill-rule="evenodd">
        <g id="maharam_logo_100percent">
            <mask id="mask-2" fill="white">
                <use xlink:href="#path-1"></use>
            </mask>
            <g id="Clip-2"></g>
            <path d="M5.033,13.788 L7.566,13.788 L7.566,9.147 C7.598,8.118 8.317,7.628 9.004,7.628 C9.641,7.628 10.049,7.938 10.066,8.771 L10.066,13.788 L12.598,13.788 L12.598,8.118 C12.598,6.402 11.471,5.52 9.935,5.52 C8.791,5.52 7.876,6.124 7.321,6.909 C6.928,5.994 6.013,5.52 4.886,5.52 C3.873,5.52 3.056,6.026 2.533,6.696 L2.533,5.732 L0,5.732 L0,13.788 L2.533,13.788 L2.533,9.147 C2.566,8.118 3.285,7.628 3.955,7.628 C4.592,7.628 5,7.922 5.033,8.69 L5.033,13.788 Z M20.605,13.788 L23.138,13.788 L23.138,5.732 L20.605,5.732 L20.605,6.811 C19.935,6.01 18.987,5.52 17.811,5.52 C15.556,5.52 13.857,7.285 13.857,9.752 C13.857,12.219 15.556,14 17.811,14 C18.987,14 19.935,13.51 20.605,12.709 L20.605,13.788 Z M16.406,9.752 C16.406,8.412 17.337,7.644 18.514,7.644 C19.723,7.644 20.621,8.412 20.621,9.752 C20.621,11.092 19.723,11.876 18.514,11.876 C17.337,11.876 16.406,11.092 16.406,9.752 L16.406,9.752 Z M30.409,13.788 L32.942,13.788 L32.942,8.347 C32.942,6.435 31.716,5.52 30.001,5.52 C28.808,5.52 27.925,6.043 27.37,6.729 L27.37,0.879 L24.837,0.879 L24.837,13.788 L27.37,13.788 L27.37,9.425 C27.386,8.265 28.121,7.628 29.053,7.628 C29.821,7.628 30.393,7.954 30.409,8.935 L30.409,13.788 Z M41.063,13.788 L43.596,13.788 L43.596,5.732 L41.063,5.732 L41.063,6.811 C40.393,6.01 39.445,5.52 38.269,5.52 C36.014,5.52 34.314,7.285 34.314,9.752 C34.314,12.219 36.014,14 38.269,14 C39.445,14 40.393,13.51 41.063,12.709 L41.063,13.788 Z M36.863,9.752 C36.863,8.412 37.795,7.644 38.971,7.644 C40.18,7.644 41.079,8.412 41.079,9.752 C41.079,11.092 40.18,11.876 38.971,11.876 C37.795,11.876 36.863,11.092 36.863,9.752 L36.863,9.752 Z M47.828,5.732 L45.295,5.732 L45.295,13.788 L47.828,13.788 L47.828,9.311 C47.86,8.265 48.841,7.824 49.576,7.824 C49.935,7.824 50.213,7.922 50.442,8.036 L50.442,5.618 C50.279,5.553 50.033,5.52 49.756,5.52 C48.971,5.52 48.285,5.994 47.828,6.647 L47.828,5.732 Z M57.795,13.788 L60.328,13.788 L60.328,5.732 L57.795,5.732 L57.795,6.811 C57.125,6.01 56.177,5.52 55.001,5.52 C52.746,5.52 51.047,7.285 51.047,9.752 C51.047,12.219 52.746,14 55.001,14 C56.177,14 57.125,13.51 57.795,12.709 L57.795,13.788 Z M53.596,9.752 C53.596,8.412 54.527,7.644 55.703,7.644 C56.913,7.644 57.811,8.412 57.811,9.752 C57.811,11.092 56.913,11.876 55.703,11.876 C54.527,11.876 53.596,11.092 53.596,9.752 L53.596,9.752 Z M67.06,13.788 L69.593,13.788 L69.593,9.147 C69.625,8.118 70.344,7.628 71.03,7.628 C71.668,7.628 72.076,7.938 72.093,8.771 L72.093,13.788 L74.625,13.788 L74.625,8.118 C74.625,6.402 73.498,5.52 71.962,5.52 C70.818,5.52 69.903,6.124 69.347,6.909 C68.955,5.994 68.04,5.52 66.913,5.52 C65.9,5.52 65.083,6.026 64.56,6.696 L64.56,5.732 L62.027,5.732 L62.027,13.788 L64.56,13.788 L64.56,9.147 C64.593,8.118 65.311,7.628 65.981,7.628 C66.619,7.628 67.027,7.922 67.06,8.69 L67.06,13.788 L67.06,13.788 Z" id="Fill-1" fill="#1B1A19" mask="url(#mask-2)"></path>
        </g>
    </g>
</svg>