<svg id="Layer_1" xmlns="http://www.w3.org/2000/svg" viewBox="0 0 114 22.5"><style>.st0{fill:#f08200}.st1{fill:#fff}.st2{fill:#5b6770}</style><g id="XMLID_111_"><path id="XMLID_114_" class="st0" d="M114 11.7c0-4.5-3.7-8.2-8.2-8.2v8.2h-8.2c0 4.5 3.7 8.2 8.2 8.2v-8.2h8.2z"/><path id="XMLID_113_" class="st0" d="M106.2 19.9c4.2-.2 7.5-3.6 7.7-7.7-4.1.8-6.9 3.5-7.7 7.7z"/><path id="XMLID_112_" class="st0" d="M105.3 3.5c-4.2.2-7.5 3.6-7.7 7.7 4.2-.7 6.9-3.5 7.7-7.7z"/></g><g id="XMLID_108_"><path id="XMLID_110_" class="st1" d="M105.8 3.5h-.5c-.8 4.2-3.5 7-7.7 7.7v.5h8.2V3.5z"/><path id="XMLID_109_" class="st1" d="M105.8 11.7V20h.5c.8-4.2 3.5-7 7.7-7.7v-.5h-8.2v-.1z"/></g><path class="st2" d="M5.2 9.7H2.5V5.1H0v11.7h2.5v-5.2h2.7v5.2h2.5V5.1H5.2v4.6zm10.6 5.4V8.6h-2.3v5.7c0 .7-.1 1.2-.8 1.2-.5 0-.8-.2-.8-1.2V8.6H9.6v6.6c0 .5.2 1 .6 1.3.4.3.9.5 1.4.5s.8-.1 1.1-.2.6-.4.8-.7v.8h2.4c-.1-.7-.1-1.3-.1-1.8zm5.8-6.7c-.4 0-.8.1-1.1.2-.3.2-.6.4-.8.7v-.7h-2.3v8.2h2.3v-5.6c0-.8.1-1.3.8-1.3.7 0 .8.5.8 1.3v5.6h2.3v-6.6c0-.5-.2-1-.6-1.3-.3-.3-.8-.5-1.4-.5zm6.2-2.2l-2.3 1v1.3h-.9V10h.9v5c0 .3.1 1.8 2.3 1.8.5 0 .8 0 1-.1h.2v-1.5h-.4c-.3 0-.5-.1-.6-.3s-.1-.4-.1-.7V10H29V8.6h-1.2V6.2zm5.3 2.2c-3.1 0-3.4 2.1-3.4 4.2 0 1.1.1 2.3.6 3.1s1.4 1.2 2.8 1.2c1 0 1.9-.3 2.4-.8s.8-1.2.9-2.1H34c0 .9-.3 1.4-.9 1.4-1 0-1-1.5-1-2.4h4.4c0-1.5 0-2.9-.9-3.8-.6-.5-1.4-.8-2.5-.8zm1 3.3h-2c0-.3 0-.8.1-1.2s.4-.7.9-.7c.3 0 .5.1.7.2.3.5.3 1.1.3 1.7zM40 9.6v-1h-2.2v8.2h2.3v-4.5c0-.3 0-.8.2-1.2.3-.4.7-.6 1.5-.6h.3V8.4c-1.1 0-1.8.4-2.1 1.2zm11.2 1.3c0-3.7-.6-5.8-3.8-5.8h-4.1v11.7h4c1.2 0 2.1-.3 2.7-1 1.2-1.2 1.2-3.4 1.2-4.6v-.3zm-4.3 4h-1.2v-8H47c1.7 0 1.7 1.9 1.7 4-.1 2.9-.3 4-1.8 4zm8.6-6.5c-3.1 0-3.4 2.1-3.4 4.2 0 1.1.1 2.3.6 3.1s1.4 1.2 2.8 1.2 2.3-.4 2.8-1.2.6-2 .6-3.1c0-2.1-.3-4.2-3.4-4.2zm0 7c-.8 0-1-.6-1-3 0-1.8.1-2.5 1-2.5s1 .8 1 2.5c.1 2.5-.1 3-1 3zm11.1-.3V8.6h-2.3v5.7c0 .7-.1 1.2-.8 1.2-.5 0-.8-.2-.8-1.2V8.6h-2.3v6.6c0 .5.2 1 .6 1.3s.9.5 1.4.5.8-.1 1.1-.2c.3-.1.6-.4.8-.7v.8h2.4c-.1-.7-.1-1.3-.1-1.8zm5.6-5.6c-.3-.7-1-1.1-1.8-1.1-2.4 0-2.4 2.4-2.4 4.1v.2c0 1.2 0 2.6.7 3.4.4.4.9.6 1.7.6.8 0 1.4-.3 1.7-.9v1.6c0 .9-.3 1.3-.8 1.3-.3 0-.6-.1-.7-.3-.1-.2-.2-.4-.2-.8h-2.3c0 .9.3 1.6 1 2 .5.3 1.2.5 2.2.5 1.3 0 2.2-.4 2.7-1.2.4-.6.4-1.3.4-1.6V8.6h-2.2v.9zm-1 5.7c-.2 0-.4-.1-.6-.2-.4-.4-.4-1.3-.4-1.9v-.2c0-2.5.2-3.1 1-3.1s.9 1.1.9 2.8c0 1.8-.1 2.6-.9 2.6zM86 16.5c0-.4-.1-.8-.1-1.2v-4.1c0-1.3-.3-2.8-3.3-2.8-1 0-1.7.2-2.1.5-.6.4-.9 1.1-.9 2h2.3c0-.6.1-1.2.8-1.2.8 0 .9.5.9 1.2v.6h-.4c-1.8 0-3.8.2-3.8 2.8 0 2.3 1.4 2.6 2.2 2.6 1 0 1.6-.4 2.1-1.2l.1 1.1H86v-.3zm-2.8-1.3c-.2.2-.4.3-.7.3-.3 0-.8-.1-.8-1.3 0-1.3.7-1.3 1.7-1.4h.2v.3c.1.7.1 1.7-.4 2.1zm7.7-3.5c-.8-.3-1.5-.6-1.5-1.2 0-.5.3-.8.7-.8.2 0 .4 0 .6.2.2.1.2.5.2 1h2.3c.1-.7-.1-1.3-.5-1.7-.5-.5-1.3-.8-2.3-.8-.8 0-1.6.2-2.2.5-.7.4-1.1 1-1.1 1.8 0 1.5 1.2 2 2.3 2.5.9.4 1.7.7 1.7 1.5 0 .6-.4.8-.8.8s-.7-.1-.8-.4c-.1-.2-.1-.5-.1-1h-2.3c-.1.9.1 1.6.6 2 .5.5 1.3.8 2.7.8 1.8 0 3.1-1 3.1-2.5-.1-1.5-1.5-2.2-2.6-2.7zM76 16.8h2.3V5.1H76v11.7z"/></svg>