<?xml version="1.0" encoding="utf-8"?>
<svg version="1.1" id="logo" xmlns="http://www.w3.org/2000/svg" xmlns:xlink="http://www.w3.org/1999/xlink" x="0px" y="0px"
	 width="233px" height="76px" viewBox="0 0 233 76" style="enable-background:new 0 0 233 76;" xml:space="preserve">
<style type="text/css">
	.st0{fill:#ED1C24;}
	.st1{fill:#010B13;}
</style>
<path id="mark" class="st0" d="M33.1,28c0,2.9-2.3,5.2-5.2,5.2c-2.9,0-5.2-2.3-5.2-5.2c0-2.9,2.3-5.2,5.2-5.2
	C30.8,22.8,33.1,25.1,33.1,28 M26.9,52.9v-5.6c0-1.7-1.4-3.1-3.1-3.1c-1.7,0-3.1,1.4-3.1,3.1v5.6c0,1.7,1.4,3.1,3.1,3.1
	C25.6,55.9,26.9,54.6,26.9,52.9 M11.8,32.1c0-1.7-1.4-3.1-3.1-3.1H3.1C1.4,29,0,30.4,0,32.1c0,1.7,1.4,3.1,3.1,3.1h5.5
	C10.4,35.2,11.8,33.8,11.8,32.1 M11.8,23.9c0-1.7-1.4-3.1-3.1-3.1H3.1c-1.7,0-3.1,1.4-3.1,3.1C0,25.6,1.4,27,3.1,27h5.5
	C10.4,27,11.8,25.6,11.8,23.9 M35.2,52.9v-5.6c0-1.7-1.4-3.1-3.1-3.1c-1.7,0-3.1,1.4-3.1,3.1v5.6c0,1.7,1.4,3.1,3.1,3.1
	C33.8,55.9,35.2,54.6,35.2,52.9 M42,28c0-7.7-6.3-14-14-14c-7.8,0-14,6.3-14,14c0,7.8,6.3,14,14,14C35.7,42,42,35.7,42,28
	 M55.9,32.1c0-1.7-1.4-3.1-3.1-3.1h-5.5c-1.7,0-3.1,1.4-3.1,3.1c0,1.7,1.4,3.1,3.1,3.1h5.5C54.6,35.2,55.9,33.8,55.9,32.1 M26.9,8.6
	V3.1c0-1.7-1.4-3.1-3.1-3.1c-1.7,0-3.1,1.4-3.1,3.1v5.5c0,1.7,1.4,3.1,3.1,3.1C25.6,11.8,26.9,10.4,26.9,8.6 M55.9,23.9
	c0-1.7-1.4-3.1-3.1-3.1h-5.5c-1.7,0-3.1,1.4-3.1,3.1c0,1.7,1.4,3.1,3.1,3.1h5.5C54.6,27,55.9,25.6,55.9,23.9 M35.2,8.6V3.1
	c0-1.7-1.4-3.1-3.1-3.1C30.4,0,29,1.4,29,3.1v5.5c0,1.7,1.4,3.1,3.1,3.1C33.8,11.8,35.2,10.4,35.2,8.6"/>
<g id="type">
	<polygon class="st1" points="96.9,43.7 96.8,22.1 86.2,39.9 82.5,39.9 71.9,22.6 71.9,43.7 64.1,43.7 64.1,7.7 71,7.7 84.5,30.1 
		97.7,7.7 104.6,7.7 104.7,43.7 	"/>
	<path class="st1" d="M136.8,32.2h-20.9c0.8,3.4,3.7,5.6,7.9,5.6c2.9,0,5-0.9,6.9-2.7l4.3,4.6c-2.6,2.9-6.4,4.5-11.4,4.5
		c-9.6,0-15.8-6-15.8-14.2c0-8.3,6.3-14.2,14.8-14.2c8.1,0,14.4,5.5,14.4,14.3C136.9,30.6,136.8,31.5,136.8,32.2 M115.7,27.5h13.6
		c-0.6-3.5-3.2-5.8-6.8-5.8C118.9,21.7,116.3,23.9,115.7,27.5"/>
	<path class="st1" d="M138.9,29.9c0-8.3,6.4-14.2,15.4-14.2c5.8,0,10.4,2.5,12.4,7l-6.2,3.3c-1.5-2.6-3.7-3.8-6.2-3.8
		c-4.1,0-7.3,2.8-7.3,7.7c0,4.8,3.2,7.7,7.3,7.7c2.5,0,4.7-1.1,6.2-3.8l6.2,3.4c-2,4.4-6.6,7-12.4,7
		C145.4,44.2,138.9,38.2,138.9,29.9"/>
	<path class="st1" d="M198.1,27.9v15.8h-8V29.1c0-4.5-2.1-6.5-5.6-6.5c-3.9,0-6.6,2.4-6.6,7.5v13.7h-8V5.6h8V19
		c2.2-2.2,5.2-3.3,8.8-3.3C193.2,15.7,198.1,19.5,198.1,27.9"/>
	<path class="st1" d="M201.1,29.9c0-8.3,6.4-14.2,15.2-14.2c8.8,0,15.2,5.9,15.2,14.2s-6.4,14.2-15.2,14.2
		C207.5,44.2,201.1,38.2,201.1,29.9 M223.3,29.9c0-4.8-3-7.7-7-7.7c-4,0-7.1,2.9-7.1,7.7c0,4.8,3.1,7.7,7.1,7.7
		C220.3,37.6,223.3,34.7,223.3,29.9"/>
	<rect x="64.1" y="51.5" class="st1" width="1.1" height="4.9"/>
	<polygon class="st1" points="70.8,51.5 70.8,56.4 69.9,56.4 67.4,53.4 67.4,56.4 66.3,56.4 66.3,51.5 67.2,51.5 69.7,54.5 
		69.7,51.5 	"/>
	<polygon class="st1" points="76.3,51.5 76.3,56.4 75.4,56.4 72.9,53.4 72.9,56.4 71.8,56.4 71.8,51.5 72.7,51.5 75.2,54.5 
		75.2,51.5 	"/>
	<path class="st1" d="M77,53.9c0-1.5,1.1-2.5,2.7-2.5c1.5,0,2.7,1.1,2.7,2.5c0,1.5-1.1,2.5-2.7,2.5C78.2,56.5,77,55.4,77,53.9
		 M81.3,53.9c0-0.9-0.7-1.6-1.5-1.6c-0.9,0-1.5,0.6-1.5,1.6c0,0.9,0.7,1.6,1.5,1.6C80.6,55.5,81.3,54.9,81.3,53.9"/>
	<polygon class="st1" points="87.6,51.5 85.5,56.4 84.4,56.4 82.2,51.5 83.5,51.5 85,55 86.5,51.5 	"/>
	<path class="st1" d="M90.8,55.3h-2.3l-0.4,1.1h-1.2l2.2-4.9h1.1l2.2,4.9h-1.2L90.8,55.3z M90.5,54.5l-0.8-1.9l-0.8,1.9H90.5z"/>
	<polygon class="st1" points="93.3,52.4 91.7,52.4 91.7,51.5 96,51.5 96,52.4 94.4,52.4 94.4,56.4 93.3,56.4 	"/>
	<rect x="96.4" y="51.5" class="st1" width="1.1" height="4.9"/>
	<polygon class="st1" points="103.3,51.5 101.2,56.4 100.1,56.4 97.9,51.5 99.2,51.5 100.7,55 102.2,51.5 	"/>
	<polygon class="st1" points="107.5,55.5 107.5,56.4 103.7,56.4 103.7,51.5 107.4,51.5 107.4,52.4 104.8,52.4 104.8,53.5 
		107.1,53.5 107.1,54.3 104.8,54.3 104.8,55.5 	"/>
	<path class="st1" d="M110.1,51.5h2.2c1.6,0,2.7,1,2.7,2.5s-1.1,2.5-2.7,2.5h-2.2V51.5z M112.3,55.5c1,0,1.6-0.6,1.6-1.5
		c0-0.9-0.6-1.5-1.6-1.5h-1v3.1H112.3z"/>
	<polygon class="st1" points="119.3,55.5 119.3,56.4 115.5,56.4 115.5,51.5 119.2,51.5 119.2,52.4 116.6,52.4 116.6,53.5 
		118.9,53.5 118.9,54.3 116.6,54.3 116.6,55.5 	"/>
	<path class="st1" d="M119.7,55.9l0.4-0.9c0.4,0.3,1,0.5,1.6,0.5c0.7,0,0.9-0.2,0.9-0.5c0-0.9-2.9-0.3-2.9-2.1
		c0-0.8,0.7-1.5,2.1-1.5c0.6,0,1.3,0.1,1.7,0.4l-0.4,0.9c-0.5-0.3-0.9-0.4-1.4-0.4c-0.7,0-0.9,0.3-0.9,0.6c0,0.9,2.9,0.3,2.9,2.1
		c0,0.8-0.7,1.5-2.1,1.5C120.9,56.5,120.1,56.2,119.7,55.9"/>
	<rect x="124.5" y="51.5" class="st1" width="1.1" height="4.9"/>
	<path class="st1" d="M129.9,53.9h1v2c-0.5,0.4-1.3,0.6-2,0.6c-1.5,0-2.7-1.1-2.7-2.5c0-1.5,1.1-2.5,2.7-2.5c0.9,0,1.6,0.3,2.1,0.9
		l-0.7,0.7c-0.4-0.4-0.8-0.6-1.3-0.6c-1,0-1.6,0.6-1.6,1.6c0,0.9,0.7,1.6,1.6,1.6c0.3,0,0.6-0.1,0.9-0.2V53.9z"/>
	<polygon class="st1" points="136.4,51.5 136.4,56.4 135.4,56.4 133,53.4 133,56.4 131.9,56.4 131.9,51.5 132.8,51.5 135.3,54.5 
		135.3,51.5 	"/>
	<path class="st1" d="M136.9,55.8c0-0.4,0.3-0.7,0.7-0.7c0.4,0,0.7,0.3,0.7,0.7c0,0.4-0.3,0.7-0.7,0.7
		C137.2,56.5,136.9,56.2,136.9,55.8"/>
	<polygon class="st1" points="141.8,52.4 140.2,52.4 140.2,51.5 144.5,51.5 144.5,52.4 142.9,52.4 142.9,56.4 141.8,56.4 	"/>
	<path class="st1" d="M148.1,56.4l-0.9-1.4h-0.1h-1v1.4h-1.1v-4.9h2.1c1.3,0,2.1,0.7,2.1,1.8c0,0.7-0.4,1.3-1,1.6l1.1,1.6H148.1z
		 M147,52.4h-0.9v1.7h0.9c0.7,0,1-0.3,1-0.9C148,52.7,147.7,52.4,147,52.4"/>
	<path class="st1" d="M149.9,54.2v-2.8h1.1v2.7c0,0.9,0.4,1.3,1.1,1.3c0.7,0,1.1-0.4,1.1-1.3v-2.7h1.1v2.8c0,1.4-0.8,2.2-2.2,2.2
		C150.7,56.5,149.9,55.7,149.9,54.2"/>
	<path class="st1" d="M154.9,55.9l0.4-0.9c0.4,0.3,1,0.5,1.6,0.5c0.7,0,0.9-0.2,0.9-0.5c0-0.9-2.9-0.3-2.9-2.1
		c0-0.8,0.7-1.5,2.1-1.5c0.6,0,1.3,0.1,1.7,0.4l-0.4,0.9c-0.5-0.3-0.9-0.4-1.4-0.4c-0.7,0-0.9,0.3-0.9,0.6c0,0.9,2.9,0.3,2.9,2.1
		c0,0.8-0.7,1.5-2.1,1.5C156.1,56.5,155.3,56.2,154.9,55.9"/>
	<polygon class="st1" points="160.7,52.4 159.1,52.4 159.1,51.5 163.4,51.5 163.4,52.4 161.8,52.4 161.8,56.4 160.7,56.4 	"/>
	<polygon class="st1" points="167.6,55.5 167.6,56.4 163.8,56.4 163.8,51.5 167.5,51.5 167.5,52.4 164.9,52.4 164.9,53.5 
		167.2,53.5 167.2,54.3 164.9,54.3 164.9,55.5 	"/>
	<path class="st1" d="M168.4,51.5h2.2c1.6,0,2.7,1,2.7,2.5s-1.1,2.5-2.7,2.5h-2.2V51.5z M170.6,55.5c1,0,1.6-0.6,1.6-1.5
		c0-0.9-0.6-1.5-1.6-1.5h-1v3.1H170.6z"/>
	<path class="st1" d="M180.2,53.3c0,1.1-0.8,1.8-2.1,1.8h-1v1.4h-1.1v-4.9h2.1C179.4,51.5,180.2,52.2,180.2,53.3 M179.1,53.3
		c0-0.5-0.4-0.9-1-0.9h-0.9v1.7h0.9C178.7,54.1,179.1,53.8,179.1,53.3"/>
	<polygon class="st1" points="184.3,55.5 184.3,56.4 180.5,56.4 180.5,51.5 184.2,51.5 184.2,52.4 181.6,52.4 181.6,53.5 
		183.9,53.5 183.9,54.3 181.6,54.3 181.6,55.5 	"/>
	<path class="st1" d="M188.3,56.4l-0.9-1.4h-0.1h-1v1.4h-1.1v-4.9h2.1c1.3,0,2.1,0.7,2.1,1.8c0,0.7-0.4,1.3-1,1.6l1.1,1.6H188.3z
		 M187.2,52.4h-0.9v1.7h0.9c0.7,0,1-0.3,1-0.9C188.2,52.7,187.9,52.4,187.2,52.4"/>
	<polygon class="st1" points="191.3,52.4 191.3,53.7 193.6,53.7 193.6,54.6 191.3,54.6 191.3,56.4 190.1,56.4 190.1,51.5 
		193.9,51.5 193.9,52.4 	"/>
	<path class="st1" d="M194.1,53.9c0-1.5,1.1-2.5,2.7-2.5c1.5,0,2.7,1.1,2.7,2.5c0,1.5-1.1,2.5-2.7,2.5
		C195.2,56.5,194.1,55.4,194.1,53.9 M198.3,53.9c0-0.9-0.7-1.6-1.5-1.6c-0.9,0-1.5,0.6-1.5,1.6c0,0.9,0.7,1.6,1.5,1.6
		C197.7,55.5,198.3,54.9,198.3,53.9"/>
	<path class="st1" d="M203.3,56.4l-0.9-1.4h-0.1h-1v1.4h-1.1v-4.9h2.1c1.3,0,2.1,0.7,2.1,1.8c0,0.7-0.4,1.3-1,1.6l1.1,1.6H203.3z
		 M202.2,52.4h-0.9v1.7h0.9c0.7,0,1-0.3,1-0.9C203.3,52.7,202.9,52.4,202.2,52.4"/>
	<polygon class="st1" points="209.7,56.4 209.7,53.4 208.2,55.9 207.7,55.9 206.3,53.5 206.3,56.4 205.2,56.4 205.2,51.5 
		206.1,51.5 208,54.5 209.8,51.5 210.7,51.5 210.7,56.4 	"/>
	<path class="st1" d="M215,55.3h-2.3l-0.4,1.1h-1.2l2.2-4.9h1.1l2.2,4.9h-1.2L215,55.3z M214.7,54.5l-0.8-1.9l-0.8,1.9H214.7z"/>
	<polygon class="st1" points="221.5,51.5 221.5,56.4 220.6,56.4 218.1,53.4 218.1,56.4 217,56.4 217,51.5 218,51.5 220.4,54.5 
		220.4,51.5 	"/>
	<path class="st1" d="M222.2,53.9c0-1.5,1.1-2.5,2.7-2.5c0.9,0,1.6,0.3,2,0.9l-0.7,0.7c-0.3-0.4-0.7-0.6-1.2-0.6
		c-0.9,0-1.6,0.6-1.6,1.6c0,0.9,0.7,1.6,1.6,1.6c0.5,0,0.9-0.2,1.2-0.6l0.7,0.7c-0.5,0.6-1.2,0.9-2,0.9
		C223.4,56.5,222.2,55.4,222.2,53.9"/>
	<polygon class="st1" points="231.3,55.5 231.3,56.4 227.5,56.4 227.5,51.5 231.2,51.5 231.2,52.4 228.6,52.4 228.6,53.5 
		230.9,53.5 230.9,54.3 228.6,54.3 228.6,55.5 	"/>
	<path class="st1" d="M231.6,55.8c0-0.4,0.3-0.7,0.7-0.7c0.4,0,0.7,0.3,0.7,0.7c0,0.4-0.3,0.7-0.7,0.7
		C231.9,56.5,231.6,56.2,231.6,55.8"/>
	<path class="st1" d="M231.5,14.6c0.3,0.2,0.6,0.5,0.8,0.8c0.2,0.3,0.3,0.7,0.3,1.2c0,0.4-0.1,0.8-0.3,1.2c-0.2,0.4-0.5,0.6-0.8,0.8
		c-0.3,0.2-0.7,0.3-1.2,0.3c-0.4,0-0.8-0.1-1.2-0.3c-0.3-0.2-0.6-0.5-0.8-0.8c-0.2-0.3-0.3-0.7-0.3-1.1c0-0.4,0.1-0.8,0.3-1.1
		c0.2-0.3,0.5-0.6,0.8-0.8c0.3-0.2,0.7-0.3,1.2-0.3C230.8,14.3,231.2,14.4,231.5,14.6z M231.3,18.2c0.3-0.2,0.5-0.4,0.7-0.7
		c0.2-0.3,0.2-0.6,0.2-0.9c0-0.3-0.1-0.7-0.2-0.9c-0.2-0.3-0.4-0.5-0.7-0.7c-0.3-0.2-0.6-0.2-0.9-0.2c-0.3,0-0.7,0.1-0.9,0.2
		c-0.3,0.2-0.5,0.4-0.7,0.7c-0.2,0.3-0.2,0.6-0.2,0.9c0,0.3,0.1,0.7,0.2,0.9c0.2,0.3,0.4,0.5,0.7,0.7c0.3,0.2,0.6,0.2,0.9,0.2
		C230.7,18.5,231,18.4,231.3,18.2z M231.4,16.7c-0.1,0.1-0.2,0.2-0.4,0.3l0.5,0.8h-0.7l-0.5-0.7h0H230v0.7h-0.7v-2.5h1.1
		c0.3,0,0.6,0.1,0.8,0.2c0.2,0.2,0.3,0.4,0.3,0.6C231.5,16.4,231.5,16.6,231.4,16.7z M230.4,16.6c0.2,0,0.3,0,0.4-0.1
		c0.1-0.1,0.1-0.2,0.1-0.3c0-0.1,0-0.2-0.1-0.3c-0.1-0.1-0.2-0.1-0.4-0.1H230v0.8H230.4z"/>
</g>
</svg>
